Coordinates
version=1
nRows=27
nColumns=13
inDegrees=yes

Units are S.I. units (second, meters, Newtons, ...)
If the header above contains a line with 'inDegrees', this indicates whether rotational values are in degrees (yes) or radians (no).

endheader
time	pelvis_tilt	pelvis_tx	pelvis_ty	hip_flexion_r	knee_angle_r	ankle_angle_r	mtp_angle_r	hip_flexion_l	knee_angle_l	ankle_angle_l	mtp_angle_l	lumbar_ext
      0.95000000	      3.20587687	     -0.01902727	      0.83500511	    -15.19715763	    -17.94093062	     17.49407879	      0.00000000	     23.39219453	     -9.01824471	     -3.98547573	      0.00000000	    -16.40827304
      0.96000000	      2.73359380	     -0.00772603	      0.83290721	    -14.31210229	    -20.29480317	     17.09391034	      0.00000000	     25.41043586	    -13.25304831	     -3.33130298	      0.00000000	    -15.92531358
      0.97000000	      2.32413131	      0.00387525	      0.83119760	    -13.42227685	    -22.74317567	     16.32872136	      0.00000000	     26.94802820	    -16.78417607	     -3.09881753	      0.00000000	    -15.48807766
      0.98000000	      2.13369024	      0.01580610	      0.83017415	    -12.75426091	    -25.15415412	     14.89443531	      0.00000000	     27.91863599	    -19.78951611	     -2.95804833	      0.00000000	    -15.27536288
      0.99000000	      1.89331635	      0.02768432	      0.82939535	    -11.82142469	    -27.85530475	     13.16627354	      0.00000000	     28.71445588	    -22.38108728	     -2.69456776	      0.00000000	    -15.00676095
      1.00000000	      1.58239616	      0.03956467	      0.82880674	    -10.61366251	    -30.81465456	     11.36554614	      0.00000000	     29.42704450	    -24.69999591	     -2.45950121	      0.00000000	    -14.65467515
      1.01000000	      1.44697379	      0.05145142	      0.82884210	     -9.49884146	    -33.77563904	      8.88522284	      0.00000000	     29.67790167	    -26.55878734	     -1.99578962	      0.00000000	    -14.51373705
      1.02000000	      1.31429664	      0.06321557	      0.82913712	     -8.20632328	    -36.93079084	      6.37761337	      0.00000000	     29.78359379	    -28.15104222	     -1.41894260	      0.00000000	    -14.38922288
      1.03000000	      1.05439392	      0.07473208	      0.82942715	     -6.54254523	    -40.30755957	      3.85795519	      0.00000000	     29.91087034	    -29.52158977	     -0.67432454	      0.00000000	    -14.12846407
      1.04000000	      0.86529197	      0.08612655	      0.83001245	     -4.84580439	    -43.68959851	      1.39682649	      0.00000000	     29.82001476	    -30.63694089	      0.18874432	      0.00000000	    -13.96207767
      1.05000000	      0.38674864	      0.09711576	      0.83023346	     -2.56428396	    -47.33063649	     -0.58330131	      0.00000000	     30.02181520	    -31.65478466	      1.06861288	      0.00000000	    -13.47831142
      1.06000000	      0.07928637	      0.10797207	      0.83084528	     -0.41813798	    -50.80770201	     -2.43303548	      0.00000000	     29.89771616	    -32.42402219	      2.05310399	      0.00000000	    -13.21071062
      1.07000000	     -0.08558770	      0.11877162	      0.83179722	      1.60336315	    -54.08323225	     -4.11891930	      0.00000000	     29.50066247	    -33.00129378	      3.17372339	      0.00000000	    -13.10724891
      1.08000000	     -0.48481999	      0.12920548	      0.83242774	      4.04734820	    -57.37345925	     -5.07261353	      0.00000000	     29.34236763	    -33.48092280	      4.12947695	      0.00000000	    -12.74219720
      1.09000000	     -0.85108797	      0.13949821	      0.83312952	      6.49910025	    -60.43766237	     -5.69242172	      0.00000000	     29.11595776	    -33.88353307	      5.03687695	      0.00000000	    -12.41866449
      1.10000000	     -0.98018449	      0.14979789	      0.83428312	      8.65073301	    -63.12835764	     -6.14070166	      0.00000000	     28.51235374	    -34.08885067	      6.09021196	      0.00000000	    -12.37020809
      1.11000000	     -1.35852684	      0.15980674	      0.83501722	     11.17870661	    -65.67662865	     -6.13391733	      0.00000000	     28.22102140	    -34.29981092	      6.88741572	      0.00000000	    -12.02438712
      1.12000000	     -1.56246437	      0.16989229	      0.83607877	     13.46520023	    -67.81765685	     -5.97590769	      0.00000000	     27.65605033	    -34.37953734	      7.73195271	      0.00000000	    -11.86619150
      1.13000000	     -1.26342008	      0.18005907	      0.83797613	     15.07316825	    -69.43202335	     -5.96787156	      0.00000000	     26.46201865	    -34.32715362	      7.95584972	      0.00000000	    -12.30795891
      1.14000000	     -1.66350179	      0.19010650	      0.83866177	     17.57435300	    -71.00057574	     -5.19258461	      0.00000000	     26.03994975	    -34.26721105	      9.36915325	      0.00000000	    -11.86243676
      1.15000000	     -1.89767382	      0.20019547	      0.83953351	     19.81060744	    -72.13521045	     -4.70030634	      0.00000000	     25.46079036	    -34.25047486	     10.05843291	      0.00000000	    -11.60086003
      1.16000000	     -1.82435018	      0.21045914	      0.84096782	     21.57492183	    -72.79697364	     -4.34392258	      0.00000000	     24.38726561	    -33.95916585	     10.60054100	      0.00000000	    -11.68327300
      1.17000000	     -1.83705690	      0.22075225	      0.84206854	     23.38947779	    -73.18498789	     -3.72604091	      0.00000000	     23.47189346	    -33.81763836	     11.43200522	      0.00000000	    -11.63776428
      1.18000000	     -1.74808615	      0.23118650	      0.84335962	     24.96767777	    -73.14879074	     -3.47597198	      0.00000000	     22.32357467	    -33.43651200	     11.84488450	      0.00000000	    -11.68458478
      1.19000000	     -1.60734757	      0.24161489	      0.84449733	     26.41276579	    -72.85502799	     -2.85952128	      0.00000000	     21.14834146	    -33.14502865	     12.78322614	      0.00000000	    -11.79505866
      1.20000000	     -1.52507842	      0.25207487	      0.84551084	     27.82411513	    -72.21943487	     -2.62521216	      0.00000000	     19.97681807	    -32.71479971	     13.23585588	      0.00000000	    -11.81705213
      1.21000000	     -1.41203025	      0.26258047	      0.84643921	     29.09155249	    -71.28173574	     -2.33899960	      0.00000000	     18.75647292	    -32.25874496	     13.84500254	      0.00000000	    -11.86605779
